{"title":"Helix S01E01-E02 HDTV x264 AAC E-Subs [GWC].mp4","uid":9466491,"size":209760005,"categoryP":"video","categoryS":"tv_shows","magnet":"?xt=urn:btih:ac55000ede514c000ce1c2897d79dac2dab6e240&amp;dn=Helix+S01E01-E02+HDTV+x264+AAC+E-Subs+%5BGWC%5D.mp4&amp;tr=udp%3A%2F%2Ftracker.openbittorrent.com%3A80&amp;tr=udp%3A%2F%2Fopen.demonii.com%3A1337&amp;tr=udp%3A%2F%2Ftracker.coppersurfer.tk%3A6969&amp;tr=udp%3A%2F%2Fexodus.desync.com%3A6969","seeders":1,"leechers":0,"uploader":"canc232","files":1,"time":1389465381,"description":"Helix S01E01-E02 HDTV x264 AAC E-Subs [GWC]\n\n\nSCREENS : &lt;a href=&quot;\nhttp://s20.postimg.org/voxj6jwjh/Helix_S01_E01_E02_HDTV_x264_AAC_E_Subs_GWC_22_5.jpg&quot; rel=&quot;nofollow&quot; target=&quot;_NEW&quot;&gt;\nhttp://s20.postimg.org/voxj6jwjh/Helix_S01_E01_E02_HDTV_x264_AAC_E_Subs_GWC_22_5.jpg&lt;/a&gt; &lt;a href=&quot;\nhttp://s20.postimg.org/l0ts7pmkd/Helix_S01_E01_E02_HDTV_x264_AAC_E_Subs_GWC_22_5.jpg&quot; rel=&quot;nofollow&quot; target=&quot;_NEW&quot;&gt;\nhttp://s20.postimg.org/l0ts7pmkd/Helix_S01_E01_E02_HDTV_x264_AAC_E_Subs_GWC_22_5.jpg&lt;/a&gt; &lt;a href=&quot;\nhttp://s20.postimg.org/wbwfw2tfh/Helix_S01_E01_E02_HDTV_x264_AAC_E_Subs_GWC_22_5.jpg&quot; rel=&quot;nofollow&quot; target=&quot;_NEW&quot;&gt;\nhttp://s20.postimg.org/wbwfw2tfh/Helix_S01_E01_E02_HDTV_x264_AAC_E_Subs_GWC_22_5.jpg&lt;/a&gt;\n\n\nMEDIA INFO :\nGeneral \nFormat : MPEG-4 \nFormat profile : Base Media \nFile size : 200 MiB \nDuration : 1h 17mn \nOverall bit rate mode : Variable \nOverall bit rate : 362 Kbps \n\nVideo \nFormat : AVC \nFormat profile : &lt;a class=&quot;__cf_email__&quot; href=&quot;/cdn-cgi/l/email-protection&quot; data-cfemail=&quot;763e1f111e363a455846&quot;&gt;[email&amp;#160;protected]&lt;/a&gt;&lt;script cf-hash='f9e31' type=&quot;text/javascript&quot;&gt;\n/* &lt;![CDATA[ */!function(){try{var t=&quot;currentScript&quot;in document?document.currentScript:function(){for(var t=document.getElementsByTagName(&quot;script&quot;),e=t.length;e--;)if(t[e].getAttribute(&quot;cf-hash&quot;))return t[e]}();if(t&amp;&amp;t.previousSibling){var e,r,n,i,c=t.previousSibling,a=c.getAttribute(&quot;data-cfemail&quot;);if(a){for(e=&quot;&quot;,r=parseInt(a.substr(0,2),16),n=2;a.length-n;n+=2)i=parseInt(a.substr(n,2),16)^r,e+=String.fromCharCode(i);e=document.createTextNode(e),c.parentNode.replaceChild(e,c)}}}catch(u){}}();/* ]]&gt; */&lt;/script&gt; \nFormat settings, CABAC : Yes \nFormat settings, ReFrames : 4 frames \nDuration : 1h 17mn \nBit rate : 299 Kbps \nMaximum bit rate : 1 493 Kbps \nWidth : 720 pixels \nHeight : 404 pixels \nDisplay aspect ratio : 16:9 \nFrame rate : 23.976 fps\nStream size : 165 MiB (83%) \nTitle : Helix S01E01-E02 HDTV x264 AAC E-Subs [GWC] \nWriting library : x264 core\n\nAudio \nFormat : AAC \nFormat profile : HE-AAC / LC \nDuration : 1h 17mn \nBit rate mode : Variable \nChannel(s) : 2 channels \nSampling rate : 48.0 KHz / 24.0 KHz\nStream size : 33.2 MiB\nTitle : Helix S01E01-E02 HDTV x264 AAC E-Subs [GWC] \nLanguage : English \n\nText \nFormat : Timed Text \nDuration : 1h 17mn \nTitle : English Subtitle by backinblack \nLanguage : English","torrent":{"xt":"urn:btih:ac55000ede514c000ce1c2897d79dac2dab6e240","amp;dn":"Helix+S01E01-E02+HDTV+x264+AAC+E-Subs+%5BGWC%5D.mp4","amp;tr":["udp%3A%2F%2Ftracker.openbittorrent.com%3A80","udp%3A%2F%2Fopen.demonii.com%3A1337","udp%3A%2F%2Ftracker.coppersurfer.tk%3A6969","udp%3A%2F%2Fexodus.desync.com%3A6969"],"infoHash":"ac55000ede514c000ce1c2897d79dac2dab6e240","infoHashBuffer":{"type":"Buffer","data":[172,85,0,14,222,81,76,0,12,225,194,137,125,121,218,194,218,182,226,64]},"announce":[],"urlList":[]}}